<?xml version="1.0" encoding="iso-8859-1"?>
<!-- Generator: Adobe Illustrator 19.0.0, SVG Export Plug-In . SVG Version: 6.00 Build 0)  -->
<svg version="1.1" id="Layer_1" xmlns="http://www.w3.org/2000/svg" xmlns:xlink="http://www.w3.org/1999/xlink" x="0px" y="0px"
	 viewBox="0 0 512 512" style="enable-background:new 0 0 512 512;" xml:space="preserve">
<circle style="fill:#FF7F4F;" cx="256" cy="256" r="256"/>
<path style="fill:#D35933;" d="M510.581,283.026L341.333,113.778l-13.171,46.878l-5.935-5.935l-29.408,52.765l-93.708-93.708
	l-10.917,47.407l83.754,83.753L170.667,426.667L256,512C388.256,512,497.078,411.705,510.581,283.026z"/>
<path style="fill:#386895;" d="M312.889,113.778c0,31.418-25.471,56.889-56.889,56.889s-56.889-25.471-56.889-56.889h-28.444
	v284.444h170.667V113.778H312.889z"/>
<g>
	<path style="fill:#273B7A;" d="M341.333,113.778h-28.444c0,31.418-25.471,56.889-56.889,56.889c-0.384,0-0.765-0.021-1.148-0.029
		v227.585h86.481V113.778z"/>
	<rect x="170.667" y="199.111" style="fill:#273B7A;" width="170.667" height="227.556"/>
</g>
<rect x="254.845" y="199.111" style="fill:#121149;" width="86.488" height="227.556"/>
<rect x="199.111" y="227.556" style="fill:#71E2EF;" width="113.778" height="85.333"/>
<rect x="254.845" y="227.556" style="fill:#38C6D9;" width="58.037" height="85.333"/>
<g>
	<rect x="199.111" y="337.886" style="fill:#71E2EF;" width="113.778" height="6.896"/>
	<rect x="199.111" y="366.33" style="fill:#71E2EF;" width="113.778" height="6.896"/>
</g>
<g>
	<rect x="254.845" y="337.886" style="fill:#38C6D9;" width="58.037" height="6.896"/>
	<rect x="254.845" y="366.33" style="fill:#38C6D9;" width="58.037" height="6.896"/>
</g>
<g>
</g>
<g>
</g>
<g>
</g>
<g>
</g>
<g>
</g>
<g>
</g>
<g>
</g>
<g>
</g>
<g>
</g>
<g>
</g>
<g>
</g>
<g>
</g>
<g>
</g>
<g>
</g>
<g>
</g>
</svg>
